<svg width="1146.31828" height="801.00361" xmlns="http://www.w3.org/2000/svg" data-name="Layer 1">

 <g>
  <title>Layer 1</title>
  <path id="svg_1" fill="#21899a" d="m1023.85832,465.01001a456.24913,456.24913 0 0 1 -37.38013,-261.87c3.6001,-23.1 9.44006,-46.85 24.43018,-64.79c14.38989,-17.23 39.34985,-27.37 60.0299,-19.29c-13.56994,-29.61 -47.76,-46.5 -80.59,-47.33c-34.09,-0.86 -66.92,12.5 -97.25,28.1c-30.33,15.6 -59.65,33.81006 -92.21,43.99c-53.5,16.72 -111.91,10.34 -165.5,-6.09c-53.58,-16.44 -103.62,-42.47 -154.62,-65.71c-51.01,-23.24 -104.17,-44.03 -160.01,-48.91c-55.84,-4.87 -115.25,7.89 -157.24,45.01s-61.87,101.28 -38.27,152.11c14.25,30.7 42.22,54.32 52.04,86.7c12.32,40.65 -7.08,83.96 -30.41,119.45c-23.34,35.49 -51.8,69.58 -60.47,111.16c-8.01,38.38 2.72,78.02 24.05,111.38a197.34468,197.34468 0 0 0 35.74,41.61c43.09,37.91 98.77,58.15 154.17,73.13c200.27,54.17 416.13,49.29 613.75,-13.88c34.99,-11.18 69.95,-24.43 99.32,-46.48c19.16,-14.38 35.83,-33.02 46.39,-54.35a114.10574,114.10574 0 0 0 11.13,-36.18005c6.64004,-52.08996 -24.82993,-100.20996 -47.09995,-147.75995z"/>
  <g id="svg_2" opacity="0.17">
   <path id="svg_3" fill="#fff" d="m863.90946,196.95326c9.64171,-4.20394 -9.91163,-6.65119 -32.09585,-7.45582s-49.02061,-0.76011 -63.19756,-3.04875c-13.71114,-2.21343 -12.7009,-6.14907 -13.85427,-9.71489s-6.42446,-7.222 -27.81928,-8.0147c-26.6607,-0.98774 -70.62581,2.81434 -90.75171,0.53173c-18.78121,-2.13011 -7.61723,-8.81182 -35.00344,-9.06755c-15.63837,-0.146 -35.7849,2.05682 -53.18577,2.58844c-16.33647,0.49909 -28.42216,-0.53441 -36.90357,-1.924s-14.38875,-3.15126 -23.93413,-4.37864c-25.06068,-3.2224 -74.09133,-2.13925 -117.853,1.99071s-81.27344,10.89816 -102.42889,17.60175s-27.00029,13.30376 -22.07239,18.90071c3.14674,3.574 11.19915,6.91585 30.73235,8.352c36.53555,2.68621 101.58387,-1.9375 139.33713,0.50645c21.0415,1.36213 30.3764,4.73924 48.83812,6.58716c19.83407,1.98528 48.86935,2.09051 77.39656,2.04341c59.39721,-0.09807 120.3137,-0.70829 182.42994,-1.82747c25.94486,-0.46745 53.13,-1.0752 80.73761,-3.30289s55.76623,-6.52591 61.59076,-10.5553"/>
  </g>
  <path id="svg_4" fill="#21899a" d="m1072.41825,122.54999c-0.46,-1.18 -0.96,-2.35 -1.48,-3.49c0.84,0.33 1.68006,0.69 2.51,1.08l-1.03,2.41z"/>
  <path id="svg_5" fill="#f2f2f2" d="m621.90396,265.08611c-7.66935,-12.68445 -16.75721,-26.22767 -30.98955,-30.36953c-16.482,-4.7965 -33.41319,4.73193 -47.77473,14.13453a1392.15692,1392.15692 0 0 0 -123.89338,91.28311l0.04331,0.49239q46.22556,-3.18781 92.451,-6.37555c22.26532,-1.53546 45.29557,-3.2827 64.97195,-13.8156c7.46652,-3.99683 14.74475,-9.33579 23.20555,-9.70782c10.51175,-0.46217 19.67733,6.87923 26.8802,14.54931c42.60732,45.371 54.937,114.7541 102.73817,154.61592a1516.99458,1516.99458 0 0 0 -107.63252,-214.80676z"/>
  <path id="svg_6" fill="#e4e4e4" d="m883.8049,649.91451c-4.71168,-5.94958 -6.63691,-7.343 -11.28457,-13.34761q-56.76439,-73.41637 -106.70792,-151.79237q-33.92353,-53.23005 -64.48275,-108.50439q-14.54863,-26.27808 -28.29961,-52.96872q-10.67043,-20.6952 -20.8646,-41.63793c-1.94357,-3.98781 -3.83209,-7.99393 -5.71122,-12.00922c-4.42788,-9.44232 -8.7734,-18.93047 -13.43942,-28.24449c-5.31687,-10.61571 -11.78905,-21.74485 -21.55259,-28.877a29.4049,29.4049 0 0 0 -15.31855,-5.89457c-7.948,-0.51337 -15.28185,2.76854 -22.17569,6.35294c-50.43858,26.301 -97.65921,59.27589 -140.36959,96.79771a730.77781,730.77781 0 0 0 -114.04177,126.59138c-1.008,1.43927 -3.39163,0.06418 -2.37419,-1.38422q6.00935,-8.49818 12.25681,-16.81288a734.81742,734.81742 0 0 1 187.59962,-174.98573q18.24825,-11.82579 37.18269,-22.54245c6.36206,-3.60275 12.75188,-7.15967 19.25136,-10.49653c6.37147,-3.27274 13.13684,-6.21547 20.41563,-6.32547c24.77011,-0.385 37.5954,27.667 46.40506,46.54248q4.15283,8.9106 8.40636,17.76626q16.07481,33.62106 33.38729,66.628q10.68453,20.379 21.83683,40.51955q34.7071,62.71816 73.77854,122.897c34.5059,53.1429 68.73651,100.08874 108.04586,149.78473c1.0819,1.37516 -0.85228,3.33698 -1.94358,1.94353z"/>
  <path id="svg_7" fill="#e4e4e4" d="m431.15034,295.93701c-1.43911,-1.60428 -2.86926,-3.20856 -4.31777,-4.81284c-11.42244,-12.63259 -23.6788,-25.11847 -39.3644,-32.36067a57.11021,57.11021 0 0 0 -23.92678,-5.54622c-8.56213,0.02753 -16.93178,2.27348 -24.84307,5.41792c-3.74034,1.49428 -7.39831,3.19021 -11.00078,4.99614c-4.11634,2.07182 -8.15927,4.28118 -12.1834,6.50883q-11.33112,6.27044 -22.36816,13.0909q-21.9606,13.5722 -42.54565,29.21623q-10.67111,8.11311 -20.90175,16.75788q-9.51557,8.03052 -18.64618,16.492c-1.30168,1.20091 -3.24526,-0.74255 -1.94358,-1.94347c1.60428,-1.49428 3.22692,-2.97938 4.84955,-4.44612q6.87549,-6.21547 13.9712,-12.19258q12.93921,-10.91827 26.54851,-20.99312q21.16295,-15.67614 43.78289,-29.2254q11.3036,-6.76547 22.91829,-12.9626c2.33793,-1.24674 4.70317,-2.466 7.09571,-3.6211a113.11435,113.11435 0 0 1 16.86778,-6.86631a60.00626,60.00626 0 0 1 25.476,-2.50266a66.32725,66.32725 0 0 1 23.50512,8.1314c15.40091,8.60812 27.34573,21.919 38.97005,34.90916c1.17366,1.32008 -0.76096,3.27272 -1.94358,1.95263z"/>
  <path id="svg_8" fill="#e4e4e4" d="m746.7108,426.84397l36.90462,-13.498l18.32327,-6.70182c5.96758,-2.18267 11.92082,-4.66747 18.08989,-6.23037a28.53868,28.53868 0 0 1 16.37355,0.20862a37.73731,37.73731 0 0 1 12.771,7.91667a103.63871,103.63871 0 0 1 10.47488,11.18642c3.98932,4.79426 7.9197,9.63878 11.86772,14.46706q24.44135,29.89093 48.56306,60.04134q24.12118,30.14991 47.91981,60.556q23.85681,30.48042 47.38548,61.21573q2.8823,3.76519 5.75967,7.53415c1.0598,1.38809 3.44948,0.01962 2.37471,-1.38807q-23.70225,-31.04441 -47.73491,-61.83464q-24.09177,-30.86383 -48.51646,-61.46586q-24.42423,-30.60142 -49.17854,-60.93744q-6.167,-7.5576 -12.35444,-15.09858c-3.47954,-4.24072 -6.91984,-8.52718 -10.73629,-12.47426c-7.00538,-7.24516 -15.75772,-13.64794 -26.23437,-13.82167c-6.15972,-0.10214 -12.121,1.85248 -17.844,3.92288c-6.16967,2.232 -12.32455,4.50571 -18.48632,6.7594l-37.16276,13.59238l-9.29068,3.39811c-1.64874,0.603 -0.9365,3.26189 0.73111,2.65195z"/>
  <path id="svg_9" fill="#f2f2f2" d="m382.61162,274.65914c-18.75411,-9.63866 -42.77137,-7.75087 -60.00507,4.29119a855.84532,855.84532 0 0 1 97.37059,22.72582c-13.28263,-7.78394 -23.67279,-19.97959 -37.36552,-27.01701z"/>
  <path id="svg_10" fill="#f2f2f2" d="m322.42196,278.91715l-3.61042,2.93466c1.22123,-1.02713 2.4908,-1.99013 3.795,-2.90144c-0.0616,-0.01067 -0.12298,-0.02256 -0.18458,-0.03322z"/>
  <path id="svg_11" fill="#f2f2f2" d="m847.7835,426.97881c-3.63279,-4.42206 -7.56046,-9.05222 -12.99421,-10.84836l-5.07308,0.20009a575.43629,575.43629 0 0 0 153.26729,175.22056q-67.59999,-82.28612 -135.2,-164.57229z"/>
  <path id="svg_12" fill="#3f3d56" d="m1059.82829,648.95001c-10.56006,21.33 -27.23,39.97 -46.39,54.35c-29.37,22.05 -64.33,35.3 -99.32,46.48c-197.62,63.17 -413.48,68.05 -613.75,13.88c-55.4,-14.98 -111.08,-35.22 -154.17,-73.13a197.34468,197.34468 0 0 1 -35.74,-41.61c57.35,-31.52 126.86,-43.4 193.19,-41.95c95.09,2.08 187.96,27.46 282.16,40.59a1102.669,1102.669 0 0 0 334.04,-4.6c38.31994,-6.43 77.98,-14.84 115.49,-4.66a95.14954,95.14954 0 0 1 24.49,10.65z"/>
  <circle id="svg_13" fill="#ccc" r="51" cy="51" cx="179.31828"/>
  <path id="svg_14" fill="#f0f0f0" d="m335.46806,48.34223c-13.49707,-14.15882 -29.17249,-27.07542 -47.72931,-33.90094a76.71521,76.71521 0 0 0 -15.98633,-4.01734c-0.04388,-0.006 -0.08545,0.00287 -0.12909,-0.00067a2.35576,2.35576 0 0 0 -0.26965,-0.05292a61.5388,61.5388 0 0 0 -22.84131,1.379a63.10735,63.10735 0 0 0 -10.63519,3.7049a93.00467,93.00467 0 0 0 -9.97943,5.65557a64.90832,64.90832 0 0 1 -22.05231,8.22678a74.1877,74.1877 0 0 1 -11.84406,1.16248c-3.44714,0.06915 -6.698,0.1889 -9.964,1.43426a23.91573,23.91573 0 0 0 -14.56494,15.77051a1.55078,1.55078 0 0 0 0.68933,1.694c0.88349,0.63275 1.74476,1.35065 2.673,1.91437a8.33922,8.33922 0 0 0 2.611,0.71209q2.21366,0.46711 4.43292,0.90693q8.17584,1.61992 16.41962,2.86792q16.681,2.5252 33.54217,3.55755a373.48132,373.48132 0 0 0 67.51026,-2.029a374.77144,374.77144 0 0 0 37.4554,-6.47841a1.5139,1.5139 0 0 0 0.66192,-2.50708z"/>
  <path id="svg_15" fill="#f0f0f0" d="m181.73875,82.44129a76.71521,76.71521 0 0 0 -15.98633,-4.01734c-0.04388,-0.006 -0.08545,0.00287 -0.12909,-0.00067a2.35576,2.35576 0 0 0 -0.26965,-0.05292a61.5388,61.5388 0 0 0 -22.84131,1.379a63.10735,63.10735 0 0 0 -10.63519,3.7049a93.00467,93.00467 0 0 0 -9.97943,5.65557a64.90832,64.90832 0 0 1 -22.05231,8.22681a74.1877,74.1877 0 0 1 -11.84406,1.16248c-3.44714,0.06915 -6.698,0.1889 -9.964,1.43426a23.91573,23.91573 0 0 0 -14.56494,15.77051a1.55078,1.55078 0 0 0 0.68933,1.694c0.88349,0.63275 1.74476,1.35065 2.673,1.91437a8.33922,8.33922 0 0 0 2.611,0.71209q2.21366,0.46712 4.43292,0.90693q8.17584,1.61992 16.41962,2.86792q16.681,2.5252 33.54217,3.55755a373.48132,373.48132 0 0 0 67.51026,-2.029a374.77144,374.77144 0 0 0 37.4554,-6.47844a1.5139,1.5139 0 0 0 0.66193,-2.50708c-13.49708,-14.15882 -29.1725,-27.07542 -47.72932,-33.90094z"/>
  <polygon id="svg_16" fill="#2f2e41" points="1047.411 588.142 1074.576 567.518 1087.816 580.759 1043.563 611.042 1047.411 588.142"/>
  <path id="svg_17" fill="#2f2e41" d="m1022.07549,644.92962l-92.92366,0l3.25907,-10.55987l0,0c20.1993,-7.31227 8.85333,-23.02957 28.06751,-32.63666c46.9968,-23.4984 65.19118,-93.62006 58.30932,-121.33935l30.798,-1.30221s42.53218,120.78504 -27.51024,165.83809z"/>
  <path id="svg_18" fill="#3f3d56" d="m1101.40567,595.29069a15.61893,15.61893 0 0 1 -20.18272,0.37759l-0.0604,-0.04961l-0.00207,-0.07767a14.96483,14.96483 0 0 0 -0.6,-3.81936a10.69077,10.69077 0 0 1 -0.38818,2.64366l-0.07784,0.28991l-0.20873,-0.21549c-0.18027,-0.18589 -0.35474,-0.37472 -0.51859,-0.561a15.75088,15.75088 0 0 1 -2.399,-3.63269a45.91623,45.91623 0 0 0 -12.74,-15.87972a22.29237,22.29237 0 0 1 -2.6727,-2.57172a22.03415,22.03415 0 0 1 27.66955,-33.56911l0.13767,0.0806l-0.07148,0.1425a11.47756,11.47756 0 0 1 -2.04788,2.954a14.96829,14.96829 0 0 0 3.15395,-2.27865l0.10006,-0.09436l0.11337,0.07818a22.12793,22.12793 0 0 1 4.0294,3.5867l0.12844,0.14726a9.83643,9.83643 0 0 0 7.28375,3.36123a15.614,15.614 0 0 1 15.11947,18.29291l-0.01769,0.10315l-0.10034,0.0304a13.39866,13.39866 0 0 1 -5.45694,0.68088a15.22208,15.22208 0 0 0 4.86061,1.2174l0.21654,0.01718l-0.06874,0.20619a15.6035,15.6035 0 0 1 -4.50339,6.79l-0.05928,0.05187l-0.06294,0.05509a15.3329,15.3329 0 0 0 -5.297,10.64272a15.73345,15.73345 0 0 1 -5.2769,10.99996z"/>
  <path id="svg_19" opacity="0.15" d="m1104.24814,590.27115a15.57418,15.57418 0 0 1 -0.1756,1.67894a15.78521,15.78521 0 0 0 2.53772,-7.82047c0.02071,-0.42637 0.06546,-0.8511 0.12549,-1.27393a14.8141,14.8141 0 0 0 -2.48761,7.41546z"/>
  <path id="svg_20" opacity="0.15" d="m1109.16245,571.29081a15.19815,15.19815 0 0 0 3.88418,1.09822a15.63,15.63 0 0 0 1.42322,-1.73647a13.24363,13.24363 0 0 1 -5.3074,0.63825z"/>
  <path id="svg_21" opacity="0.15" d="m1114.8865,566.16263a15.70907,15.70907 0 0 1 -0.11112,4.05194a15.52908,15.52908 0 0 0 1.75758,-3.62455l0.06874,-0.2062l-0.21655,-0.01718a15.09472,15.09472 0 0 1 -1.49865,-0.20401z"/>
  <path id="svg_22" opacity="0.15" d="m1113.44155,551.34148a15.65079,15.65079 0 0 0 -11.46149,-5.29958a9.83649,9.83649 0 0 1 -7.28378,-3.36124l-0.12843,-0.14726a22.12785,22.12785 0 0 0 -4.02939,-3.58669l-0.11338,-0.07817l-0.10005,0.09434a14.9676,14.9676 0 0 1 -3.154,2.27865a11.47832,11.47832 0 0 0 2.04794,-2.954l0.07146,-0.1425l-0.13766,-0.08059a22.01777,22.01777 0 0 0 -32.62113,14.2542a22.02182,22.02182 0 0 1 30.259,-8.11268l0.13765,0.08059l-0.07145,0.1425a11.47814,11.47814 0 0 1 -2.04794,2.954a14.96754,14.96754 0 0 0 3.154,-2.27865l0.10006,-0.09434l0.11338,0.07817a22.12857,22.12857 0 0 1 4.02939,3.5867l0.12843,0.14725a9.83643,9.83643 0 0 0 7.28377,3.36124a15.61675,15.61675 0 0 1 15.10347,12.83488a18.92714,18.92714 0 0 0 2.26005,-0.55l0.10034,-0.03039l0.01776,-0.10314a15.554,15.554 0 0 0 -3.658,-12.99329z"/>
  <path id="svg_23" fill="#3f3d56" d="m1146.31827,487.04246a50.29141,50.29141 0 0 1 -42.007,49.59965l-0.2484,0.04053l-0.19219,-0.16016a48.18565,48.18565 0 0 0 -10.51008,-6.67159a34.42316,34.42316 0 0 1 5.5662,6.56047l0.53537,0.80469l-0.96485,0.04641c-0.8328,0.04053 -1.66038,0.0608 -2.45919,0.0608a50.71554,50.71554 0 0 1 -13.88445,-1.92513c-20.51748,-5.83748 -42.55022,-6.83567 -65.48571,-2.96711a71.77856,71.77856 0 0 1 -11.90147,0.993a70.94787,70.94787 0 0 1 -22.32036,-138.28498l0.48765,-0.16146l0.19251,0.47589a36.95659,36.95659 0 0 1 2.787,11.23306a48.19635,48.19635 0 0 0 1.19789,-12.47116l-0.01536,-0.44255l0.43013,-0.10786a71.24939,71.24939 0 0 1 17.24051,-2.1147l0.62918,0.00262a31.67228,31.67228 0 0 0 23.616,-10.46237a50.27568,50.27568 0 0 1 76.38016,2.34611l0.2118,0.26213l-0.1399,0.30723c-2.93769,6.47484 -6.13818,11.19189 -9.95836,14.64143a49.01343,49.01343 0 0 0 13.27978,-9.16282l0.502,-0.487l0.35234,0.60466a50.24214,50.24214 0 0 1 6.83967,25.32736l-0.00065,0.25363c-0.00065,0.08956 -0.00065,0.17977 -0.00065,0.26932c0,13.61317 5.26419,26.51577 14.46689,35.43934a50.66021,50.66021 0 0 1 15.37354,36.15056z"/>
  <g id="svg_24" opacity="0.15">
   <path id="svg_25" d="m1084.84782,368.21894a35.519,35.519 0 0 1 -6.33509,7.77159a48.88929,48.88929 0 0 0 9.89823,-6.1865q-1.74954,-0.86184 -3.56314,-1.58509z"/>
   <path id="svg_26" d="m1113.95207,428.23504a50.48191,50.48191 0 0 1 7.22981,8.80775a51.39288,51.39288 0 0 1 -4.70405,-21.59022c0,-0.08957 0,-0.17978 0.00065,-0.26932l0.00064,-0.25364a50.24245,50.24245 0 0 0 -6.83956,-25.32735l-0.35235,-0.60468l-0.50207,0.487a49.12616,49.12616 0 0 1 -9.17043,6.983a48.97185,48.97185 0 0 0 14.33736,31.76746z"/>
   <path id="svg_27" d="m1099.48647,392.27274l-0.00065,0.25364c-0.00064,0.08954 -0.00064,0.17975 -0.00064,0.26931c0,0.49355 0.00894,0.98585 0.02272,1.47739a52.3648,52.3648 0 0 0 5.95587,-10.26709l0.13985,-0.30725l-0.21176,-0.26212a50.68811,50.68811 0 0 0 -9.096,-8.79733a50.35621,50.35621 0 0 1 3.19061,17.63345z"/>
   <path id="svg_28" d="m1130.94473,450.89191a45.45934,45.45934 0 0 1 -6.40838,-7.79666a50.2297,50.2297 0 0 1 -37.21772,70.89l-0.24841,0.04054l-0.19217,-0.16016a48.188,48.188 0 0 0 -10.5101,-6.67159a34.42262,34.42262 0 0 1 5.56617,6.56046l0.5354,0.80471l-0.96482,0.0464c-0.83286,0.04054 -1.66041,0.0608 -2.4592,0.0608a50.71549,50.71549 0 0 1 -13.88448,-1.92514c-20.51749,-5.83747 -42.55022,-6.83566 -65.4857,-2.9671a71.7793,71.7793 0 0 1 -11.90145,0.993a70.62389,70.62389 0 0 1 -47.12,-17.969a71.01118,71.01118 0 0 0 64.1127,40.6259a71.77947,71.77947 0 0 0 11.90145,-0.99294c22.93547,-3.86857 44.96821,-2.87037 65.4857,2.96709a50.71543,50.71543 0 0 0 13.88448,1.92514c0.79878,0 1.62634,-0.02026 2.45919,-0.0608l0.96483,-0.0464l-0.5354,-0.80471a34.42263,34.42263 0 0 0 -5.56618,-6.56045a48.18774,48.18774 0 0 1 10.51011,6.67159l0.19217,0.16016l0.24841,-0.04055a50.25392,50.25392 0 0 0 26.63344,-85.75019l-0.00004,-0.0001z"/>
  </g>
  <polygon id="svg_29" fill="#2f2e41" points="134.035 560.973 97.223 533.025 79.28 550.968 139.25 592.007 134.035 560.973"/>
  <path id="svg_30" fill="#2f2e41" d="m168.36914,637.92962l125.9266,0l-4.4166,-14.31034l0,0c-27.37332,-9.9093 -11.99769,-31.20879 -38.036,-44.228c-63.68827,-31.84414 -88.3446,-126.87035 -79.01856,-164.43447l-41.73625,-1.76471s-57.63806,163.68335 37.28081,224.73752z"/>
  <path id="svg_31" fill="#3f3d56" d="m53.71279,555.754a20.7786,20.7786 0 0 0 -7.17833,-14.42261c-0.0283,-0.02489 -0.05681,-0.05 -0.08529,-0.07465l-0.08034,-0.0703a21.14539,21.14539 0 0 1 -6.10283,-9.20148l-0.09315,-0.27942l0.29345,-0.02329a20.6283,20.6283 0 0 0 6.58691,-1.64977a18.15726,18.15726 0 0 1 -7.395,-0.9227l-0.136,-0.0412l-0.024,-0.13979a21.15953,21.15953 0 0 1 20.48932,-24.78985a13.32987,13.32987 0 0 0 9.87066,-4.555l0.17406,-0.19956a29.9868,29.9868 0 0 1 5.46049,-4.86055l0.15364,-0.106l0.13559,0.12786a20.2845,20.2845 0 0 0 4.27411,3.088a15.554,15.554 0 0 1 -2.77519,-4.00312l-0.09688,-0.19312l0.18657,-0.10923a29.85984,29.85984 0 0 1 37.49674,45.49159a30.209,30.209 0 0 1 -3.62195,3.48511a62.224,62.224 0 0 0 -17.26483,21.51959a21.34447,21.34447 0 0 1 -3.251,4.92289c-0.222,0.25244 -0.45848,0.50834 -0.70277,0.76026l-0.28286,0.292l-0.10549,-0.39287a14.48742,14.48742 0 0 1 -0.526,-3.58259a20.27961,20.27961 0 0 0 -0.813,5.17585l-0.00281,0.10525l-0.08185,0.06724a21.15037,21.15037 0 0 1 -34.50192,-15.41853l-0.00005,-0.00001z"/>
  <path id="svg_32" opacity="0.15" d="m57.0118,563.85854a21.10374,21.10374 0 0 0 0.238,2.27524a21.39156,21.39156 0 0 1 -3.439,-10.598c-0.02806,-0.57781 -0.08871,-1.15339 -0.17006,-1.72639a20.07562,20.07562 0 0 1 3.37106,10.04915z"/>
  <path id="svg_33" opacity="0.15" d="m50.35214,538.13705a20.59681,20.59681 0 0 1 -5.2637,1.48826a21.18029,21.18029 0 0 1 -1.92868,-2.3532a17.94731,17.94731 0 0 0 7.19238,0.86494z"/>
  <path id="svg_34" opacity="0.15" d="m42.59514,531.1876a21.28893,21.28893 0 0 0 0.1506,5.491a21.04389,21.04389 0 0 1 -2.3818,-4.91186l-0.09316,-0.27943l0.29346,-0.02329a20.4517,20.4517 0 0 0 2.0309,-0.27642z"/>
  <path id="svg_35" opacity="0.15" d="m44.55329,511.10254a21.20931,21.20931 0 0 1 15.53218,-7.18179a13.33,13.33 0 0 0 9.87069,-4.555l0.174,-0.19955a29.98717,29.98717 0 0 1 5.46048,-4.86056l0.15364,-0.10593l0.13559,0.12785a20.28377,20.28377 0 0 0 4.27415,3.08794a15.55474,15.55474 0 0 1 -2.77529,-4.00312l-0.09683,-0.19312l0.18655,-0.10921a29.83764,29.83764 0 0 1 44.20696,19.31676a29.84315,29.84315 0 0 0 -41.00585,-10.994l-0.18655,0.10921l0.09683,0.19311a15.5548,15.5548 0 0 0 2.77529,4.00313a20.28412,20.28412 0 0 1 -4.27415,-3.08794l-0.13559,-0.12786l-0.15364,0.10594a29.98711,29.98711 0 0 0 -5.46048,4.86055l-0.174,0.19956a13.33,13.33 0 0 1 -9.87069,4.555a21.16316,21.16316 0 0 0 -20.46769,17.3933a25.64845,25.64845 0 0 1 -3.06273,-0.74529l-0.136,-0.04118l-0.02407,-0.13978a21.07824,21.07824 0 0 1 4.9572,-17.60802z"/>
  <path id="svg_36" fill="#3f3d56" d="m20.83368,374.9771c12.47114,-12.09289 19.605,-29.578 19.605,-48.026c0,-0.12136 0,-0.24361 -0.00089,-0.365l-0.00088,-0.34372a68.08611,68.08611 0 0 1 9.26876,-34.32266l0.47748,-0.81942l0.68034,0.66a66.42122,66.42122 0 0 0 17.99625,12.41711c-5.177,-4.67469 -9.51414,-11.06706 -13.4952,-19.8415l-0.18957,-0.41636l0.287,-0.35523a68.13168,68.13168 0 0 1 103.50749,-3.17935a42.9211,42.9211 0 0 0 32.00348,14.1782l0.85264,-0.00355a96.55467,96.55467 0 0 1 23.36369,2.86576l0.58289,0.14617l-0.02081,0.59973a65.31307,65.31307 0 0 0 1.62334,16.90044a50.08227,50.08227 0 0 1 3.77686,-15.22262l0.26089,-0.64491l0.66085,0.21881a96.14585,96.14585 0 0 1 -30.24771,187.39848a97.27192,97.27192 0 0 1 -16.12844,-1.34567c-31.0813,-5.24253 -60.93923,-3.88982 -88.74374,4.02092a68.72787,68.72787 0 0 1 -18.81567,2.60886c-1.08252,0 -2.204,-0.02747 -3.33261,-0.08239l-1.30753,-0.0629l0.72555,-1.09049a46.64968,46.64968 0 0 1 7.5431,-8.8905a65.29981,65.29981 0 0 0 -14.24286,9.0411l-0.26045,0.217l-0.33662,-0.05492a68.10219,68.10219 0 0 1 -36.09263,-116.20539z"/>
  <g id="svg_37" opacity="0.15">
   <path id="svg_38" d="m83.30242,262.94181a48.13438,48.13438 0 0 0 8.58508,10.53176a66.25283,66.25283 0 0 1 -13.4137,-8.38371q2.3709,-1.16789 4.82862,-2.14805z"/>
   <path id="svg_39" d="m43.86145,344.27338a68.411,68.411 0 0 0 -9.79756,11.93592a69.64577,69.64577 0 0 0 6.37475,-29.25825c0,-0.12137 0,-0.24362 -0.00088,-0.365l-0.00087,-0.34372a68.08661,68.08661 0 0 1 9.26871,-34.32266l0.4775,-0.81944l0.68039,0.66a66.5738,66.5738 0 0 0 12.42741,9.46305c-1.15982,16.58902 -8.08576,32.05042 -19.42945,43.0501z"/>
   <path id="svg_40" d="m63.46469,295.53864l0.00087,0.34372c0.00088,0.12134 0.00088,0.24359 0.00088,0.365c0,0.66884 -0.01212,1.336 -0.0308,2.0021a70.9624,70.9624 0 0 1 -8.07116,-13.91365l-0.18953,-0.41637l0.287,-0.35522a68.69044,68.69044 0 0 1 12.32659,-11.92181a68.24086,68.24086 0 0 0 -4.32385,23.89623z"/>
   <path id="svg_41" d="m20.83365,374.97711a61.60525,61.60525 0 0 0 8.6844,-10.56575a68.06938,68.06938 0 0 0 50.436,96.06741l0.33664,0.05494l0.26042,-0.217a65.30253,65.30253 0 0 1 14.24289,-9.04108a46.64767,46.64767 0 0 0 -7.54306,8.89047l-0.72556,1.09052l1.3075,0.06287c1.12865,0.05494 2.25012,0.08239 3.33261,0.08239a68.72762,68.72762 0 0 0 18.81572,-2.60886c27.80451,-7.91072 57.66244,-9.26344 88.74372,-4.0209a97.27262,97.27262 0 0 0 16.12839,1.3456a95.7069,95.7069 0 0 0 63.8553,-24.35094a96.23165,96.23165 0 0 1 -86.88309,55.05467a97.27245,97.27245 0 0 1 -16.12839,-1.34564c-31.08129,-5.24254 -60.93922,-3.88982 -88.74373,4.0209a68.72763,68.72763 0 0 1 -18.81572,2.60887c-1.08249,0 -2.204,-0.02746 -3.33261,-0.0824l-1.30749,-0.06287l0.72555,-1.0905a46.64834,46.64834 0 0 1 7.54306,-8.89047a65.30253,65.30253 0 0 0 -14.24289,9.04108l-0.26042,0.217l-0.33663,-0.05494a68.10219,68.10219 0 0 1 -36.09261,-116.20537z"/>
  </g>
  <circle id="svg_42" fill="#fff" r="5" cy="185" cx="460.31828"/>
  <circle id="svg_43" fill="#fff" r="3" cy="305" cx="834.31828"/>
  <circle id="svg_44" fill="#fff" r="3" cy="170" cx="892.31828"/>
  <circle id="svg_45" fill="#fff" r="3" cy="80" cx="355.31828"/>
  <circle id="svg_46" fill="#fff" r="3" cy="201" cx="325.31828"/>
  <circle id="svg_47" fill="#fff" r="3" cy="170" cx="179.31828"/>
  <circle id="svg_48" fill="#fff" r="3" cy="195" cx="696.31828"/>
  <circle id="svg_49" fill="#fff" r="3" cy="98" cx="1003.31828"/>
  <path id="svg_50" fill="#3f3d56" d="m302.11843,364.06508c-3.79958,-7.035 -4.33,-16.25537 0.33531,-22.74859a36.83843,36.83843 0 0 0 14.67507,20.5993c2.77181,1.88719 6.05124,3.69758 6.99947,6.914a8.23488,8.23488 0 0 1 -0.85864,6.04445a24.4571,24.4571 0 0 1 -3.79505,4.95494l-0.13433,0.50325c-6.87844,-4.07619 -13.42226,-9.23233 -17.22183,-16.26735z"/>
  <path id="svg_51" fill="#3f3d56" d="m884.11843,563.06508c-3.79958,-7.035 -4.33,-16.25537 0.33531,-22.74859a36.83843,36.83843 0 0 0 14.67507,20.5993c2.77181,1.88719 6.05124,3.69758 6.99947,6.914a8.23488,8.23488 0 0 1 -0.85864,6.04445a24.4571,24.4571 0 0 1 -3.795,4.95494l-0.13433,0.50325c-6.87849,-4.07619 -13.42231,-9.23233 -17.22188,-16.26735z"/>
  <path id="svg_52" fill="#3f3d56" d="m565.11843,400.06508c-3.79958,-7.035 -4.33,-16.25537 0.33531,-22.74859a36.83843,36.83843 0 0 0 14.67507,20.5993c2.77181,1.88719 6.05124,3.69758 6.99947,6.914a8.23488,8.23488 0 0 1 -0.85864,6.04445a24.4571,24.4571 0 0 1 -3.795,4.95494l-0.13433,0.50325c-6.87849,-4.07619 -13.42231,-9.23233 -17.22188,-16.26735z"/>
  <path id="svg_53" fill="#3f3d56" d="m261.11843,516.06508c-3.79958,-7.035 -4.33,-16.25537 0.33531,-22.74859a36.83843,36.83843 0 0 0 14.67507,20.5993c2.77181,1.88719 6.05124,3.69758 6.99947,6.914a8.23488,8.23488 0 0 1 -0.85864,6.04445a24.4571,24.4571 0 0 1 -3.79505,4.95494l-0.13433,0.50325c-6.87844,-4.07619 -13.42226,-9.23233 -17.22183,-16.26735z"/>
  <path id="svg_54" fill="#3f3d56" d="m223.11843,602.06508c-3.79958,-7.035 -4.33,-16.25537 0.33531,-22.74859a36.83843,36.83843 0 0 0 14.67507,20.5993c2.77181,1.88719 6.05124,3.69758 6.99947,6.914a8.23488,8.23488 0 0 1 -0.85864,6.04445a24.4571,24.4571 0 0 1 -3.79505,4.95494l-0.13433,0.50325c-6.87844,-4.07619 -13.42226,-9.23233 -17.22183,-16.26735z"/>
  <rect id="svg_55" fill="#3f3d56" height="589" width="11" y="68" x="843.31828"/>
  <rect id="svg_56" fill="#ff6582" rx="35.99996" height="72" width="72" y="20" x="813.31828"/>
  <path id="svg_72" fill="#3f3d56" d="m705.84903,587.40554l-28.21714,-12.44873l0,-10.70235l10.0561,-0.05651a7.46918,7.46918 0 0 0 7.044,-5.10714l7.06437,-21.19305a7.46924,7.46924 0 0 0 -7.086,-9.83122l-17.07847,0l0,-9.959l21.44025,0a7.46925,7.46925 0 0 0 7.27937,-5.79584l4.865,-21.16286a7.46923,7.46923 0 0 0 -7.27937,-9.14265l-26.30525,0l0,-2.48975a4.97949,4.97949 0 0 0 -9.959,0l0,2.48975l-176.35715,0l0,-2.48975a4.9795,4.9795 0 0 0 -9.959,0l0,2.48975l-20.9108,0a7.46923,7.46923 0 0 0 -7.27937,9.14265l4.865,21.16286a7.46925,7.46925 0 0 0 7.27937,5.79584l16.0458,0l0,9.959l-11.68432,0a7.46923,7.46923 0 0 0 -7.10927,9.76l7.21041,22.37711a7.46925,7.46925 0 0 0 7.15123,5.17837l4.432,-0.0249l0,9.59969l-22.82269,12.44874a7.46922,7.46922 0 0 0 -7.46924,7.46922l0,0a7.46925,7.46925 0 0 0 7.46924,7.46925l22.82264,0l0,54.77446a4.9795,4.9795 0 0 0 9.959,0l0,-54.77445l176.35716,0l0,54.77446a4.97949,4.97949 0 0 0 9.959,0l0,-54.77446l28.21714,0a7.46925,7.46925 0 0 0 7.46925,-7.46925l0,0a7.46922,7.46922 0 0 0 -7.46926,-7.46924zm-214.53329,-69.298l176.35716,0l0,9.959l-176.35716,0l0,-9.959zm0,56.84925l0,-9.65563l176.35716,-0.99076l0,10.64641l-176.35716,-0.00002z"/>
 </g>
</svg>