<svg width="190.76331" height="412.49355" xmlns="http://www.w3.org/2000/svg" data-name="Layer 1">

 <g>
  <title>Layer 1</title>
  <path id="svg_12" fill="#2f2e41" d="m63.91087,52.18756l4.95224,1.06121a28.50966,28.50966 0 0 1 0.76987,-6.1487a18.46361,18.46361 0 0 0 2.78828,6.90816l28.40245,6.06545l27.2684,-28.777c0.04166,-14.38846 -7.94848,-25.32289 -22.27457,-25.32289c-0.86354,0 -1.75825,0.04159 -2.66338,0.12484a30.299,30.299 0 0 0 -34.68641,23.81435c-10.1541,9.99807 -6.4711,15.8762 -4.55688,22.27458z"/>
  <polygon id="svg_13" fill="#ffb6b6" points="49.946990966796875,388.7229919433594 39.644989013671875,388.7229919433594 34.743988037109375,348.9849853515625 49.949005126953125,348.9849853515625 49.946990966796875,388.7229919433594 "/>
  <path id="svg_14" fill="#2f2e41" d="m54.55589,408.28553l-7.31052,0l-1.3049,-6.902l-3.342,6.902l-19.38928,0a4.35853,4.35853 0 0 1 -2.47666,-7.94519l15.48368,-10.69356l0,-6.97769l16.28613,0.97206l2.05355,24.64438z"/>
  <polygon id="svg_15" fill="#ffb6b6" points="170.64599609375,377.5090026855469 161.68499755859375,382.5929870605469 137.81201171875,350.4490051269531 151.0369873046875,342.9460144042969 170.64599609375,377.5090026855469 "/>
  <path id="svg_16" fill="#2f2e41" d="m184.30838,392.24908l-6.35832,3.6077l-4.541,-5.35905l0.49936,7.65228l-16.86377,9.56847a4.35852,4.35852 0 0 1 -6.075,-5.68811l8.1897,-16.94184l-3.44345,-6.06884l14.64457,-7.19165l13.94791,20.42104z"/>
  <path id="svg_17" fill="#ffb6b6" d="m11.86565,59.14956a9.12421,9.12421 0 0 1 7.35419,11.90215l15.7652,13.64545l-5.95565,11.60294l-21.99286,-19.58271a9.17367,9.17367 0 0 1 4.82912,-17.56783z"/>
  <path id="svg_18" fill="#2f2e41" d="m25.49324,101.61864l-10.5443,-16.775l11.72412,-11.98658l8.32651,10.132l10.31465,4.60188l14.15584,8.625c2.81463,-3.313 24.505,-28.23054 34.18306,-21.056a9.74325,9.74325 0 0 1 4.196,6.983c0.6838,6.67049 -5.2947,13.45568 -5.52165,13.70691l-12.785,17.24649c-0.39713,1.08331 -4.62782,12.25145 -11.22887,15.25572a7.50669,7.50669 0 0 1 -6.035,0.19721c-17.49221,-6.81929 -29.27829,-14.51138 -34.53712,-22.47609a20.21593,20.21593 0 0 1 -2.24824,-4.45454z"/>
  <path id="svg_19" fill="#2f2e41" d="m64.50974,136.63101s-30.29263,48.25214 -24.80452,53.74024s14.02832,6.92923 14.02832,6.92923l18.90033,-24.49117l-8.12413,-36.1783z"/>
  <path id="svg_20" fill="#2f2e41" d="m91.29343,70.73051l-14.27709,9.658a36.82745,36.82745 0 0 0 -14.348,42.01287l4.0194,12.217l24.60569,-63.88787z"/>
  <polygon id="svg_21" fill="#2f2e41" points="116.53900146484375,202.44500732421875 118.447998046875,209.09298706054688 124.96099853515625,289.2640075683594 157.5009765625,349.9079895019531 141.969970703125,361.0010070800781 97.59698486328125,303.3160095214844 80.0469970703125,246.03799438476562 52.4840087890625,372.8340148925781 31.777008056640625,371.3550109863281 46.157989501953125,195.55398559570312 73.44900512695312,146.0709991455078 116.53900146484375,202.44500732421875 "/>
  <path id="svg_22" fill="#277bc9" d="m93.72149,73.1591l-19.87084,16.23946a27.06166,27.06166 0 0 0 -8.98333,13.83374l0,0a27.06206,27.06206 0 0 0 -0.94974,7.57473l0.59212,35.26352l-18.21875,48.69123s49.393,18.65957 55.9787,2.19524s-8.54816,-123.79792 -8.54816,-123.79792z"/>
  <path id="svg_23" fill="#2f2e41" d="m66.04814,180.49266l-3.29287,-13.17146l0.80418,-32.7728c0.06391,-1.90428 10.2146,-31.54226 23.00673,-63.0237l11.0052,-11.00473l5.93282,-3.86082l13.05962,12.05474s-1.66054,32.99672 -1.12272,66.77629c0.14881,9.34584 -1.49405,20.26062 -2.19524,28.53816l6.0004,26.66224l0,14.84085l-0.39031,0.07887c-0.3896,0.07887 -6.40306,-0.10681 -31.07769,-0.10681c-20.44461,0 -6.83393,-14.49548 -21.73012,-25.01083z"/>
  <polygon id="svg_24" opacity="0.2" points="111.02801513671875,98.14100646972656 114.02899169921875,116.86399841308594 93.72100830078125,125.24099731445312 111.02801513671875,98.14100646972656 "/>
  <circle id="svg_25" fill="#ffb6b6" r="19.88195" cy="33.26486" cx="90.57187"/>
  <path id="svg_26" opacity="0.2" d="m123.8859,134.14359l0,0a36.52061,36.52061 0 0 1 -43.8385,8.86091l-4.32724,-2.14156l48.16574,-6.71935z"/>
  <path id="svg_27" fill="#ffb6b6" d="m54.70148,129.56685a9.12421,9.12421 0 0 1 13.98452,0.42232l20.07437,-5.63557l6.40006,11.36386l-28.46067,7.56032a9.17367,9.17367 0 0 1 -11.99828,-13.711l0,0.00007z"/>
  <path id="svg_28" fill="#2f2e41" d="m97.64978,141.59918l-19.8087,-0.44567l-3.54131,-16.38873l13.04323,-1.36455l9.52425,-6.07108l14.99811,-7.05933c-1.21345,-4.1744 -10.05282,-36.00553 1.26739,-40.12767a9.74322,9.74322 0 0 1 8.13927,0.34684c5.943,3.10538 8.31033,11.83333 8.3949,12.16116l7.34583,20.17263c0.68512,0.92839 7.67294,10.61323 6.54216,17.77709a7.50673,7.50673 0 0 1 -3.16121,5.1446c-15.33,10.83843 -28.24374,16.43439 -37.788,16.43344a20.21627,20.21627 0 0 1 -4.95592,-0.57873z"/>
  <path id="svg_29" fill="#2f2e41" d="m66.73033,20.18536c1.59182,2.07035 7.0746,3.90144 13.5874,5.37877c-0.01041,-0.1352 -0.01041,-0.27045 -0.01041,-0.40571a28.51028,28.51028 0 0 1 0.76987,-6.1487a18.46349,18.46349 0 0 0 2.78829,6.90816c0.104,0.15609 0.208,0.31211 0.32251,0.46819c5.58685,1.1028 11.49622,1.95592 16.12594,2.52812c-3.18357,11.465 -15.38731,20.87009 -14.066,27.84067l35.758,7.30344a28.03231,28.03231 0 0 1 0.68663,-8.63516a18.58683,18.58683 0 0 0 5.18109,9.83164l3.0379,0.6242l0.90513,-4.46322c7.84447,-18.84132 -3.08991,-38.13 -21.00534,-48.1073a21.777,21.777 0 0 0 -13.79549,-9.25944l-4.46322,-0.91554a21.88028,21.88028 0 0 0 -25.8223,17.05188z"/>
  <path id="svg_30" fill="#f2f2f2" d="m17.09028,480.08885l-0.48174,-10.83182a34.98315,34.98315 0 0 0 -16.31744,-4.13057c7.837,6.4073 6.8576,18.75841 12.17087,27.37474a21.04264,21.04264 0 0 0 15.43077,9.72408l6.55827,4.01542a35.26075,35.26075 0 0 0 -7.43206,-28.57312a34.06019,34.06019 0 0 0 -6.25958,-5.81618c-1.57072,4.14168 -3.66909,8.23745 -3.66909,8.23745z"/>
 </g>
</svg>