<svg width="279.72275" height="181.45022" xmlns="http://www.w3.org/2000/svg" data-name="Layer 1">

 <g>
  <title>Layer 1</title>
  <path id="svg_3" fill="#3f3d56" d="m138.79011,126c-75.14014,-0.00677 -133.99878,-13.62878 -133.99721,-31.01208c0.00094,-10.42188 20.85774,-19.71882 57.22227,-25.50607a1,1 0 1 1 0.31428,1.97512c-34.25538,5.452 -55.53573,14.46863 -55.53655,23.53113c-0.00142,15.71973 60.44587,29.00545 131.99739,29.0119s132.00119,-13.26837 132.00261,-28.9881c0.00082,-9.10059 -21.41389,-18.143 -55.88752,-23.59781a1.00008,1.00008 0 1 1 0.31268,-1.97556c36.59054,5.78992 57.57578,15.11115 57.57484,25.57355c-0.00157,17.3833 -58.86266,30.99469 -134.00279,30.98792z"/>
  <path id="svg_4" fill="#277bc9" d="m72.31106,131.83239a76.98278,76.98278 0 0 0 133.14994,-0.32351a1211.97886,1211.97886 0 0 1 -133.14994,0.32351z"/>
  <path id="svg_5" fill="#277bc9" d="m212.83353,110.1296a76.997,76.997 0 1 0 -147.85749,0.78574a572.23315,572.23315 0 0 0 147.85749,-0.78574z"/>
  <circle id="svg_6" fill="#fff" r="9" cy="34" cx="501.79904"/>
  <circle id="svg_7" fill="#fff" r="15" cy="82.99739" cx="109.79399"/>
  <circle id="svg_8" fill="#fff" r="9" cy="154" cx="138.79904"/>
  <path id="svg_35" fill="#fff" d="m488.44677,280.16l-1.82,0l0,-1.82a2.34,2.34 0 0 0 -4.68,0l0,1.82l-1.82,0a2.34,2.34 0 0 0 0,4.68l1.82,0l0,1.82a2.34,2.34 0 0 0 4.68,0l0,-1.82l1.82,0a2.34,2.34 0 1 0 0,-4.68z"/>
  <path id="svg_37" fill="#fff" d="m173.44677,164.16l-1.82,0l0,-1.82a2.34,2.34 0 1 0 -4.68,0l0,1.82l-1.82,0a2.34,2.34 0 1 0 0,4.68l1.82,0l0,1.82a2.34,2.34 0 1 0 4.68,0l0,-1.82l1.82,0a2.34,2.34 0 1 0 0,-4.68z"/>
 </g>
</svg>