<svg width="251.99124" height="483.53" xmlns="http://www.w3.org/2000/svg" data-name="Layer 1">

 <g>
  <title>Layer 1</title>
  <path id="svg_1" fill="#ffb6b6" d="m213.69161,102.02326a13.11407,13.11407 0 0 0 -0.75717,1.92131l-59.16128,17.831l-10.954,-10.26356l-17.65025,14.507l17.62618,20.05417a9.96748,9.96748 0 0 0 11.709,2.44875l63.679,-29.77828a13.0787,13.0787 0 1 0 -4.49138,-16.72041l-0.0001,0.00002z"/>
  <path id="svg_2" fill="#3f3d56" d="m151.8094,122.4969l-21.76579,18.11367a5.60675,5.60675 0 0 1 -8.37488,-1.39312l-14.6838,-24.11205a15.571,15.571 0 0 1 23.99533,-19.8504l20.98035,18.75329a5.60675,5.60675 0 0 1 -0.15122,8.48861l0.00001,0z"/>
  <polygon id="svg_5" fill="#ffb6b6" points="163.3489990234375,465.1409912109375 175.60899353027344,465.1400146484375 180.20799255371094,417.4540100097656 163.3470001220703,417.8529968261719 163.3489990234375,465.1409912109375 "/>
  <path id="svg_6" fill="#2f2e41" d="m160.22199,461.13813l24.144,-0.001l0.001,0a15.3873,15.3873 0 0 1 15.38647,15.38623l0,0.5l-39.53076,0.00146l-0.00071,-15.88669z"/>
  <polygon id="svg_7" fill="#ffb6b6" points="18.711997985839844,429.7510070800781 26.75299835205078,439.0050048828125 66.2750015258789,412.3940124511719 54.40699768066406,398.7349853515625 18.711997985839844,429.7510070800781 "/>
  <path id="svg_8" fill="#2f2e41" d="m19.68261,424.76468l15.83583,18.22532l0.00064,0.00073a15.38729,15.38729 0 0 1 -1.52347,21.70619l-0.37744,0.32793l-25.92767,-29.84019l11.99211,-10.41998z"/>
  <path id="svg_9" fill="#cacaca" d="m1.19068,512.53l334.294,0a1.19068,1.19068 0 1 0 0,-2.38137l-334.294,0a1.19069,1.19069 0 1 0 0,2.38137z"/>
  <path id="svg_10" fill="#2f2e41" d="m136.41367,352.892l25.79454,95.56236l20,0l-4.3928,-104.514l-11.5948,-101.82603l-42.1156,-2.23791l12.30866,113.01558z"/>
  <path id="svg_11" fill="#2f2e41" d="m91.655,242.11427s-2.23791,14.54657 6.71381,30.2121s3.35687,68.257 3.35687,68.257l-75.51747,75.87097s11.73635,20.36019 17.33119,19.24123s93.99321,-72.73285 93.99321,-72.73285l28.688,-116.37256l-74.56561,-4.47589z"/>
  <circle id="svg_12" fill="#ffb6b6" r="25.73625" cy="46.98649" cx="133.29466"/>
  <path id="svg_13" fill="#3f3d56" d="m132.20821,87.45434s-30,-11.3569 -30,-8s-29.5756,31.74083 -22.8618,68.66674s14.54657,54.82937 11.18964,74.97079s-1.119,24.61725 -1.119,24.61725s77.92248,6.71381 79.04144,-1.119s-3.25026,-19.77888 -3.25026,-23.13576s-30.91929,-127.36151 -33.00002,-136.00002z"/>
  <path id="svg_14" fill="#2f2e41" d="m121.64615,62.45128c2.0835,-1.10163 4.50373,-1.32871 6.75892,-2.01343c8.06829,-2.44974 13.4732,-11.5705 11.74762,-19.824a10.11478,10.11478 0 0 1 -0.42377,-3.26724c0.30163,-2.44446 2.80292,-4.0217 5.20135,-4.58179s4.95038,-0.47873 7.2428,-1.37936c3.53955,-1.39059 5.89069,-5.02808 6.40039,-8.79669a18.171,18.171 0 0 0 -2.42731,-10.952l-0.86633,2.493a9.24692,9.24692 0 0 1 -2.83075,-4.23376a5.83213,5.83213 0 0 0 -4.44348,3.5733c-1.39062,0.82 -1.591,-2.54754 -3.127,-3.04434a2.75911,2.75911 0 0 0 -1.91724,0.4729c-3.09521,1.4436 -6.69134,0.20932 -10.0116,-0.59088a37.68771,37.68771 0 0 0 -17.4953,-0.0206c-3.82183,0.91159 -7.60479,2.499 -10.3396,5.32a24.80848,24.80848 0 0 0 -4.83679,8.31134c-2.93323,7.38193 -4.87091,15.36941 -3.90265,23.25351a32.91457,32.91457 0 0 0 7.75684,17.43942c2.21466,2.55167 9.44031,11.45374 13.40222,9.936c4.9782,-1.90703 -1.75392,-8.99407 4.11168,-12.09538z"/>
  <rect id="svg_15" transform="rotate(-69.1231 -485.622 599.339)" opacity="0.2" height="1.59216" width="82.62854" y="1150.85618" x="-58.60556"/>
  <path id="svg_28" fill="#ffb6b6" d="m205.45694,147.11378a13.11484,13.11484 0 0 0 -1.37393,1.54178l-61.67969,-3.69006l-6.73715,-13.41426l-21.5734,7.52156l9.619,24.90637a9.9675,9.9675 0 0 0 10.14364,6.34057l70.04426,-5.963a13.07871,13.07871 0 1 0 1.55729,-17.243l-0.00002,0.00004z"/>
  <path id="svg_29" fill="#3f3d56" d="m140.31125,144.96453l-26.681,9.48559a5.60674,5.60674 0 0 1 -7.379,-4.19879l-5.45664,-27.69892a15.571,15.571 0 0 1 29.37308,-10.3458l13.21606,24.84344a5.60674,5.60674 0 0 1 -3.07252,7.91448l0.00002,0z"/>
  <circle id="svg_30" fill="#21899a" r="17" cy="98.61828" cx="231.99124"/>
 </g>
</svg>